<svg width="23" height="23" viewBox="0 0 23 23" fill="none" xmlns="http://www.w3.org/2000/svg">
<path fill-rule="evenodd" clip-rule="evenodd" d="M0 11.25C0 5.0365 5.038 0 11.2525 0C16.9725 0 21.6075 4.415 22.385 9.737C22.747 12.214 20.8625 14.264 18.4035 14.2645C17.9885 14.2645 17.5725 14.2555 17.1765 14.2475L17.0645 14.245C16.6598 14.2345 16.2549 14.2307 15.85 14.2335C15.055 14.2435 14.5645 14.3135 14.3275 14.4315C13.8295 14.6805 13.373 15.469 13.7725 16.4435C14.025 17.0585 14.234 17.5385 14.4055 17.932L14.424 17.975C14.5955 18.369 14.7375 18.696 14.838 18.974C14.941 19.259 15.0155 19.5315 15.0355 19.823C15.0565 20.1195 15.018 20.3915 14.949 20.6725C14.7575 21.4565 14.168 21.921 13.5075 22.173C12.865 22.418 12.073 22.5 11.2525 22.5C5.038 22.5 0 17.4635 0 11.25ZM13.25 8.75C13.913 8.75 14.5489 8.48661 15.0178 8.01777C15.4866 7.54893 15.75 6.91304 15.75 6.25C15.75 5.58696 15.4866 4.95107 15.0178 4.48223C14.5489 4.01339 13.913 3.75 13.25 3.75C12.587 3.75 11.9511 4.01339 11.4822 4.48223C11.0134 4.95107 10.75 5.58696 10.75 6.25C10.75 6.91304 11.0134 7.54893 11.4822 8.01777C11.9511 8.48661 12.587 8.75 13.25 8.75ZM8.75 10C8.75 10.5967 8.51295 11.169 8.09099 11.591C7.66903 12.0129 7.09674 12.25 6.5 12.25C5.90326 12.25 5.33097 12.0129 4.90901 11.591C4.48705 11.169 4.25 10.5967 4.25 10C4.25 9.40326 4.48705 8.83097 4.90901 8.40901C5.33097 7.98705 5.90326 7.75 6.5 7.75C7.09674 7.75 7.66903 7.98705 8.09099 8.40901C8.51295 8.83097 8.75 9.40326 8.75 10ZM8.5 18.25C8.96413 18.25 9.40925 18.0656 9.73744 17.7374C10.0656 17.4092 10.25 16.9641 10.25 16.5C10.25 16.0359 10.0656 15.5908 9.73744 15.2626C9.40925 14.9344 8.96413 14.75 8.5 14.75C8.03587 14.75 7.59075 14.9344 7.26256 15.2626C6.93437 15.5908 6.75 16.0359 6.75 16.5C6.75 16.9641 6.93437 17.4092 7.26256 17.7374C7.59075 18.0656 8.03587 18.25 8.5 18.25Z" fill="white"/>
</svg>
