<svg width="15" height="24" viewBox="0 0 15 24" fill="none" xmlns="http://www.w3.org/2000/svg">
<path d="M5.76 0.44748V5.76012H4.8V0.48012C4.8 0.352816 4.74943 0.230726 4.65941 0.140709C4.56939 0.0506915 4.4473 0.00012028 4.32 0.00012028C4.1927 0.00012028 4.07061 0.0506915 3.98059 0.140709C3.89057 0.230726 3.84 0.352816 3.84 0.48012V5.76012H2.88V0.46284C2.88 -0.15492 1.92 -0.1338 1.92 0.447V5.76012H0.96V0.48492C0.96 -0.16932 0 -0.14532 0 0.459V7.40556C0 8.40732 0.96 9.0678 1.92 9.0678V21.6001C1.92 23.5201 4.8 23.5201 4.8 21.6001V9.06828C5.76 9.06828 6.72 8.27052 6.72 7.51932V0.46284C6.72 -0.14916 5.76 -0.12564 5.76 0.44748ZM10.08 1.92012V13.9201H11.04V21.6001C11.04 23.5201 14.4 23.5201 14.4 21.6001V1.92012C14.4 -0.47988 10.08 -0.47988 10.08 1.92012Z" fill="white"/>
</svg>
