<svg width="24" height="21" viewBox="0 0 24 21" fill="none" xmlns="http://www.w3.org/2000/svg">
<path d="M0 10.4248C0 10.9041 0.390137 11.1938 0.873206 11.1938C1.17129 11.1938 1.40756 11.0541 1.61315 10.8543L11.6405 1.97691C11.7532 1.86699 11.8768 1.82694 12.0101 1.82694C12.1337 1.82694 12.2468 1.86699 12.3695 1.97691L22.3868 10.8543C22.6025 11.0541 22.8388 11.1938 23.1268 11.1938C23.6094 11.1938 24 10.9041 24 10.4248C24 10.1253 23.8869 9.93569 23.6918 9.76569L20.1368 6.62052V0.718761C20.1368 0.279494 19.8492 0 19.3973 0H18.0515C17.6096 0 17.3015 0.279494 17.3015 0.718761V4.11402L13.2327 0.498915C12.8732 0.169571 12.4313 0.0102255 12 0.0102255C11.5682 0.0102255 11.1369 0.169997 10.7669 0.499341L0.308164 9.76569C0.123178 9.93569 0 10.1253 0 10.4248ZM2.9383 18.8028C2.9383 20.1909 3.80142 21 5.24975 21H9.41107V13.8997C9.41107 13.4404 9.72932 13.1413 10.2019 13.1413H13.8288C14.3014 13.1413 14.6095 13.4404 14.6095 13.8997V21H18.7603C20.2087 21 21.0617 20.1909 21.0617 18.8028V11.4934L12.3388 3.85413C12.2258 3.75443 12.1026 3.70458 11.9794 3.70458C11.8663 3.70458 11.7532 3.75443 11.63 3.86435L2.9383 11.5432V18.8028Z" fill="white"/>
</svg>
